<svg xmlns="http://www.w3.org/2000/svg" viewBox="0 0 900 700">
  <defs>
    <linearGradient id="blue" x1="0" y1="0" x2="1" y2="1">
      <stop offset="0%" stop-color="#6BB7FF"></stop>
      <stop offset="100%" stop-color="#1F5FBF"></stop>
    </linearGradient>
  </defs>

  <!-- Swoosh -->
  <path d="M120 520c120 140 560 160 700-20" fill="none" stroke="url(#blue)" stroke-width="35" stroke-linecap="round"></path>

  <!-- Calendar -->
  <rect x="120" y="120" width="450" height="350" rx="30" fill="#fff" stroke="#1f4ea3" stroke-width="12"></rect>
  <rect x="120" y="80" width="450" height="90" rx="30" fill="#e33c3c"></rect>
  <circle cx="200" cy="120" r="18" fill="#fff"></circle>
  <circle cx="300" cy="120" r="18" fill="#fff"></circle>
  <circle cx="400" cy="120" r="18" fill="#fff"></circle>
  <circle cx="500" cy="120" r="18" fill="#fff"></circle>

  <!-- Cross -->
  <rect x="270" y="200" width="170" height="50" rx="10" fill="#3a8fff"></rect>
  <rect x="330" y="160" width="50" height="170" rx="10" fill="#3a8fff"></rect>

  <!-- Checkmarks -->
  <path d="M190 330l25 30 45-45" fill="none" stroke="#3a8fff" stroke-width="14" stroke-linecap="round"></path>
  <path d="M190 400l25 30 45-45" fill="none" stroke="#e33c3c" stroke-width="14" stroke-linecap="round"></path>

  <!-- Doctor -->
  <circle cx="620" cy="350" r="110" fill="#fff" stroke="#1f4ea3" stroke-width="10"></circle>
  <circle cx="620" cy="315" r="45" fill="#f2c9a1"></circle>
  <rect x="560" y="360" width="120" height="80" rx="35" fill="#fff" stroke="#1f4ea3" stroke-width="7"></rect>
  <circle cx="690" cy="390" r="14" fill="none" stroke="#1f4ea3" stroke-width="7"></circle>
  <line x1="665" y1="370" x2="690" y2="390" stroke="#1f4ea3" stroke-width="7"></line>

  <!-- Phone -->
  <rect x="680" y="380" width="140" height="230" rx="35" fill="#0f3c7a"></rect>
  <rect x="700" y="410" width="100" height="160" rx="20" fill="#ffffff"></rect>
  <path d="M720 490l20 25 35-40" fill="none" stroke="#4caf50" stroke-width="14" stroke-linecap="round"></path>

</svg>
